<svg width="219" height="32" viewBox="0 0 219 32" fill="none" xmlns="http://www.w3.org/2000/svg">
<path d="M27.9485 0C27.536 0.732439 27.1655 1.49013 26.8288 2.26467C23.6296 1.78479 20.3715 1.78479 17.1639 2.26467C16.8356 1.49013 16.4568 0.732439 16.0442 0C13.0387 0.513549 10.109 1.41436 7.33074 2.68561C1.82482 10.8435 0.334686 18.7908 1.07554 26.6288C4.29996 29.0113 7.91164 30.8298 11.759 31.9916C12.6262 30.8298 13.3923 29.5922 14.049 28.3041C12.803 27.8411 11.5991 27.2602 10.4457 26.5867C10.7488 26.3678 11.0434 26.1405 11.3297 25.9216C18.09 29.1039 25.9195 29.1039 32.6883 25.9216C32.9745 26.1573 33.2692 26.3846 33.5723 26.5867C32.4189 27.2686 31.215 27.8411 29.9606 28.3126C30.6172 29.6006 31.3834 30.8382 32.2505 32C36.0979 30.8382 39.7096 29.0282 42.934 26.6456C43.8096 17.5533 41.4355 9.67324 36.662 2.69403C33.8922 1.42278 30.9624 0.521968 27.9569 0.0168377L27.9485 0ZM14.9919 21.8048C12.9124 21.8048 11.1866 19.919 11.1866 17.587C11.1866 15.2549 12.8451 13.3607 14.9835 13.3607C17.1218 13.3607 18.8225 15.2634 18.7888 17.587C18.7551 19.9106 17.1134 21.8048 14.9919 21.8048ZM29.0177 21.8048C26.9298 21.8048 25.2208 19.919 25.2208 17.587C25.2208 15.2549 26.8793 13.3607 29.0177 13.3607C31.1561 13.3607 32.8482 15.2634 32.8146 17.587C32.7809 19.9106 31.1392 21.8048 29.0177 21.8048ZM83.7593 5.84267C81.663 4.89976 79.1037 4.42831 76.0729 4.42831H63.512V26.9824H75.1721C78.4554 26.9824 81.2084 26.4772 83.431 25.467C85.4599 24.6251 87.1858 23.1939 88.3981 21.3586C89.4841 19.6243 90.0482 17.6122 90.0229 15.5664C90.0566 13.5291 89.5178 11.5254 88.457 9.78269C87.3289 8.02315 85.6872 6.64246 83.7593 5.83425V5.84267ZM79.752 19.7169C78.6575 20.7356 77.0916 21.2491 75.0458 21.2491H71.5688V10.17H75.5004C77.4704 10.17 78.9522 10.6667 79.9372 11.6348C80.939 12.6788 81.4694 14.0931 81.402 15.5496C81.4778 17.1155 80.8801 18.6309 79.7604 19.7253L79.752 19.7169ZM122.494 17.2249C123.521 18.1426 124.035 19.4896 124.043 21.266C124.077 23.1602 123.101 24.9366 121.476 25.9216C119.784 27.0581 117.359 27.6306 114.21 27.6222C112.4 27.6222 110.599 27.3949 108.847 26.9487C107.189 26.5362 105.606 25.8711 104.141 24.9871V19.6411C105.421 20.5672 106.852 21.2491 108.376 21.6532C110.043 22.1584 111.777 22.4278 113.52 22.4362C114.118 22.4699 114.724 22.3604 115.279 22.1331C115.675 21.9311 115.869 21.6701 115.869 21.4091C115.877 21.106 115.759 20.8198 115.549 20.6009C115.178 20.3231 114.749 20.1294 114.294 20.0537L110.43 19.1865C108.216 18.673 106.642 17.9574 105.716 17.0481C104.773 16.0968 104.268 14.7919 104.335 13.4533C104.318 12.2578 104.756 11.096 105.556 10.2036C106.507 9.19337 107.711 8.46093 109.033 8.06525C110.742 7.52644 112.526 7.27388 114.32 7.30755C115.995 7.29071 117.662 7.48435 119.278 7.88845C120.592 8.19995 121.846 8.69666 123.016 9.37017V14.4299C121.922 13.7985 120.743 13.3102 119.523 12.9987C118.192 12.6451 116.82 12.4599 115.448 12.4599C113.427 12.4599 112.417 12.8051 112.417 13.487C112.417 13.7985 112.594 14.0847 112.88 14.211C113.436 14.4467 114.008 14.6151 114.598 14.7077L117.822 15.2886C119.91 15.659 121.476 16.2989 122.503 17.2249H122.494ZM143.878 20.9461C144.821 20.6767 145.722 20.2894 146.564 19.8011V25.5091C144.072 26.9571 141.226 27.698 138.347 27.639C136.04 27.698 133.742 27.2349 131.646 26.2752C129.92 25.4838 128.472 24.2042 127.47 22.5962C126.535 21.0134 126.056 19.2118 126.089 17.3765C126.064 15.5412 126.569 13.7395 127.537 12.1905C128.573 10.6077 130.055 9.36175 131.789 8.60405C133.902 7.6864 136.183 7.2402 138.49 7.29913C141.715 7.29913 144.383 7.97264 146.513 9.32807V15.2297C145.705 14.6825 144.821 14.2615 143.887 13.9753C142.843 13.6469 141.757 13.487 140.662 13.4954C138.667 13.4954 137.101 13.8574 135.973 14.5898C134.39 15.4738 133.818 17.4775 134.702 19.0687C134.988 19.5822 135.417 20.0116 135.922 20.3147C137.017 21.0555 138.608 21.4259 140.688 21.4259C141.765 21.4259 142.834 21.2744 143.861 20.9629L143.878 20.9461ZM167.729 8.59563C163.494 6.87819 158.754 6.87819 154.52 8.59563C152.794 9.35333 151.329 10.5909 150.285 12.1568C149.3 13.7059 148.786 15.4991 148.82 17.3344C148.795 19.1865 149.308 21.0134 150.285 22.5877C151.32 24.1957 152.802 25.4754 154.545 26.2668C158.754 28.06 163.511 28.06 167.72 26.2584C169.455 25.467 170.928 24.1873 171.955 22.5793C172.923 20.9966 173.428 19.1781 173.403 17.326C173.437 15.4907 172.932 13.689 171.955 12.14C170.92 10.5825 169.455 9.34491 167.737 8.59563H167.729ZM164.328 20.5504C163.46 21.367 162.299 21.7964 161.103 21.7206C159.916 21.7795 158.754 21.3586 157.879 20.5504C157.079 19.7169 156.65 18.5972 156.709 17.4354C156.65 16.2905 157.079 15.1792 157.879 14.3625C158.754 13.5627 159.916 13.1586 161.103 13.2176C162.29 13.1502 163.452 13.5627 164.328 14.3625C165.136 15.1792 165.565 16.2905 165.506 17.4354C165.557 18.5888 165.136 19.7169 164.328 20.5504ZM189.828 7.70324C190.855 7.67798 191.874 7.93896 192.758 8.47777V15.4486C191.798 14.8761 190.687 14.5983 189.567 14.6404C187.85 14.6404 186.528 15.1623 185.602 16.2063C184.684 17.2502 184.221 18.8666 184.221 21.0555V26.9824H176.324V8.1326H184.053V14.1184C184.482 11.9295 185.173 10.3131 186.132 9.26914C187.075 8.23362 188.414 7.66114 189.811 7.70324H189.828ZM211.094 3.78006V12.1821C209.806 8.91555 207.281 7.28229 203.526 7.28229C201.808 7.25704 200.116 7.71166 198.643 8.60405C197.212 9.49645 196.058 10.7677 195.326 12.2831C194.526 13.9416 194.13 15.7601 194.189 17.5954C194.156 19.3717 194.526 21.1229 195.267 22.7393C195.94 24.1957 197.018 25.4417 198.365 26.3173C199.762 27.2013 201.387 27.6559 203.037 27.6222C204.797 27.6727 206.531 27.2434 208.055 26.3678C209.436 25.5175 210.505 24.2463 211.103 22.7393V26.974H219V3.78006H211.103H211.094ZM209.932 20.4409C209.057 21.2491 207.895 21.6617 206.708 21.5943C205.546 21.6532 204.41 21.2323 203.551 20.4409C202.743 19.658 202.305 18.5635 202.347 17.4354C202.305 16.3157 202.734 15.2381 203.543 14.4551C205.403 12.9398 208.072 12.9398 209.932 14.4551C210.741 15.2128 211.178 16.282 211.145 17.3933C211.187 18.5299 210.749 19.6411 209.932 20.4409ZM100.614 6.60879C100.614 8.56196 98.8543 10.1447 96.6822 10.1447C94.5102 10.1447 92.7506 8.56196 92.7506 6.60879C92.7506 4.65562 94.5102 3.07288 96.6822 3.07288C98.8543 3.07288 100.614 4.65562 100.614 6.60879ZM100.614 12.5777V27.0834H92.7422V12.5777C95.2594 13.6385 98.0966 13.6385 100.614 12.5777Z" fill="white"/>
</svg>
