<svg xmlns="http://www.w3.org/2000/svg" fill="none" viewBox="0 0 1127 327">
  <g clip-path="url(#a)">
    <mask id="c" width="1128" height="327" x="0" y="0" maskUnits="userSpaceOnUse" style="mask-type:alpha">
      <path fill="url(#b)" d="M559.5 327H0V0h1128v327H559.5Z"/>
    </mask>
    <g mask="url(#c)">
      <path fill="url(#d)" d="M278-56.5C-15.412-56.5-272.729 13-490 13c0 0 268.5 189.501 480.5 181.5 212-8.001 270.999 56 570 56 299 0 502.5 125.5 661.5 125.5s-92-363-92-363c-205.63 0-595.446-69.5-852-69.5Z"/>
      <path fill="#D0BAFF" d="M1127-6.3a348.077 348.077 0 0 0-20.2-33.7h-320c10.4 21.7 26.5 42.7 48.8 60.7-12.8 71.2 41.9 125.6 111.9 125.6 57.2 42 117.7 60 172.6 24.6a55.852 55.852 0 0 0 6.9-5.1V-6.3Z"/>
      <path fill="#C1A3FF" d="M1127-13.5c-4.7-8.7-9.9-17.6-15.7-26.5H789.6A179.902 179.902 0 0 0 833 10.4c-12.8 71.3 41.9 125.7 111.9 125.7 57.2 41.9 124.3 66.7 180.7 30.9l1.4-.9V-13.5Z"/>
      <path fill="#B095FF" d="M1127-13.5c-4.7-8.7-9.9-17.6-15.7-26.5H874.9c9.6 89 70.5 105.5 94.1 110.6 25.9 5.6 27.9 6.4 33 26.7 15.1 59 76.8 96.4 125 68V-13.5Z"/>
      <g opacity=".5">
        <path fill="#DBD9FF" d="M267 129.2c-11.3 19.7-9.2 31.2-5.8 36 3.4 4.8 13.6 5.1 20-10.3a2.207 2.207 0 0 1 1.3-1.2c18.2-6.6 19.9-23.8 18.9-33-1.5-14.4-17.4-21-34.4 8.5Z"/>
        <path fill="#D1C4FF" d="M299.5 115.2a9.199 9.199 0 0 0-3.4-5c-6.4-4.5-17.5-1.2-29.1 19-11.6 20.2-9.2 31.2-5.8 36a6.802 6.802 0 0 0 3.7 2.6c6.2 1.8 12.3-6.4 11.8-17.8-.2-3 .3-3.2 2-4.3 16.5-10.4 23.2-22.4 20.8-30.5Z"/>
      </g>
      <path fill="#D0BAFF" d="M49.4-60C23.7-28.7 10.9 5.3 12 32c1.8 39.7 41.7 41.6 75.5 26.7 36.3 16.6 81.6-6.4 106-62 41.7-3.8 60.2-32.4 68.9-56.7h-213Z"/>
      <path fill="#C1A3FF" d="M44.4-60C21-29.8 9.4 2.4 10.5 28c1.7 40 41.9 41.9 75.8 26.8 36.6 16.8 82.2-6.4 106.7-62.3 39.4-3.6 58.2-29.2 67.6-52.5H44.4Z"/>
      <path fill="#B095FF" d="M44.4-60C21-29.8 9.4 2.4 10.5 28c.5 13.6 5.6 22.8 13.3 28.4 20.9 13.5 58.7-1.3 91.3-52.8 34.7 12.3 68.7-20.2 83-63.6H44.4Z"/>
      <path fill="#B7CCFF" d="M636.2 121.3a1.5 1.5 0 1 0 0-3 1.5 1.5 0 0 0 0 3Z"/>
      <path fill="url(#e)" d="M726.5 263.7a2.9 2.9 0 1 0 .001-5.799 2.9 2.9 0 0 0-.001 5.799Z"/>
      <path fill="url(#f)" d="M978.4 315.2a2.9 2.9 0 1 0 .001-5.799 2.9 2.9 0 0 0-.001 5.799Z"/>
      <path fill="#FFE75C" d="M637.9 197.2a1.3 1.3 0 1 0 0-2.6 1.3 1.3 0 0 0 0 2.6Z"/>
      <path fill="#B7CCFF" d="M368.1 303.9a1 1 0 1 0 0-2 1 1 0 0 0 0 2ZM266.9 194.5a1 1 0 1 0 0-2 1 1 0 0 0 0 2Zm70.8 90.6a.8.8 0 1 0 0-1.6.8.8 0 0 0 0 1.6Zm146.1-148.7a.6.6 0 1 0 0-1.2.6.6 0 0 0 0 1.2ZM147.6 309.8a.6.6 0 1 0-.001-1.201.6.6 0 0 0 .001 1.201ZM47 81.8a.6.6 0 1 0 0-1.2.6.6 0 0 0 0 1.2Zm394.1 8.1a.6.6 0 1 0 0-1.2.6.6 0 0 0 0 1.2ZM83.5 223.6a.6.6 0 1 0 0-1.2.6.6 0 0 0 0 1.2Zm267.3-158a.6.6 0 1 0 0-1.2.6.6 0 0 0 0 1.2Zm190.3 15.6a1.2 1.2 0 1 0 0-2.4 1.2 1.2 0 0 0 0 2.4ZM385 136.4a1.2 1.2 0 1 0 0-2.4 1.2 1.2 0 0 0 0 2.4Zm-334.1-7.899a1.2 1.2 0 1 0-.001-2.4 1.2 1.2 0 0 0 0 2.4ZM911.4 232.5a1 1 0 1 0 0-2 1 1 0 0 0 0 2Zm74.5-.7a1 1 0 1 0 0-2 1 1 0 0 0 0 2ZM426.2 89.3a1 1 0 1 0 0-2 1 1 0 0 0 0 2Zm525.5 140a1 1 0 1 0 0-2 1 1 0 0 0 0 2Zm14.3-13.1a1 1 0 1 0 0-2 1 1 0 0 0 0 2ZM709.1 48.7l-1.5-3 1.5-3 1.6 3-1.6 3Z"/>
      <path fill="#91FFAD" d="m816.1 117.4-2.6-5.1 2.6-5 2.6 5-2.6 5.1Z"/>
      <path fill="#B7CCFF" d="m709.1 48.7-1.5-3 1.5-3 1.6 3-1.6 3Zm-235 210.1a1 1 0 1 0 0-2 1 1 0 0 0 0 2ZM197.9 211a1 1 0 1 0 0-2 1 1 0 0 0 0 2Zm29.2 35.8a1 1 0 1 0 0-2 1 1 0 0 0 0 2Zm-27.2-72.9a1 1 0 1 0 0-2 1 1 0 0 0 0 2Zm750.3 105a1 1 0 1 0 0-2 1 1 0 0 0 0 2Zm150.3-36.8c.55 0 1-.448 1-1s-.45-1-1-1-1 .448-1 1 .45 1 1 1Zm-76 43.2a1.001 1.001 0 0 0 0-2 1.001 1.001 0 0 0 0 2ZM665.4 72.6a1 1 0 1 0 0-2 1 1 0 0 0 0 2Z"/>
      <path fill="#fff" d="m446.7 256.5-3.2-6.3 3.2-6.2 3.3 6.2-3.3 6.3Z" opacity=".7" style="mix-blend-mode:screen"/>
      <path fill="#fff" d="m627.9 212.4-.9-1.8.9-1.8 1 1.8-1 1.8Z" opacity=".29" style="mix-blend-mode:screen"/>
      <path fill="#66BCFF" d="M837.779 162.832a6.829 6.829 0 0 1-3.127-4.784l-.473-3.363a.434.434 0 0 0-.332-.285.328.328 0 0 0-.331.285l-.521 3.363a6.778 6.778 0 0 1-3.079 4.784l-.474.284a.428.428 0 0 0-.142.284c.009.11.06.212.142.285l.474.284a6.778 6.778 0 0 1 3.079 4.784l.521 3.363a.33.33 0 0 0 .331.284.423.423 0 0 0 .332-.284l.473-3.363a6.83 6.83 0 0 1 3.127-4.784l.426-.284a.428.428 0 0 0 .142-.285.428.428 0 0 0-.142-.284l-.426-.284Z"/>
      <path fill="#fff" d="M681 244.5a5.696 5.696 0 0 1-2.7-4.2l-.5-2.9c0-.1-.1-.2-.3-.2l-.3.2-.4 2.9a5.705 5.705 0 0 1-2.7 4.2l-.4.2c0 .1-.1.2-.1.3a.298.298 0 0 0 .1.2l.4.3a5.612 5.612 0 0 1 2.7 4.2l.4 2.9.3.2c.2 0 .3-.1.3-.2l.5-2.9a5.602 5.602 0 0 1 2.7-4.2l.3-.3a.2.2 0 0 0 .2-.2c0-.1-.1-.2-.2-.3l-.3-.2Z"/>
      <path fill="#FFE75C" d="M317 303.2a14.888 14.888 0 0 1-6.6-10.1l-1-7.1a.702.702 0 0 0-.7-.6c-.4 0-.7.2-.7.6l-1.1 7.1a14.698 14.698 0 0 1-6.5 10.1l-1 .6a.707.707 0 0 0-.3.6.6.6 0 0 0 .3.6l1 .6a14.703 14.703 0 0 1 6.5 10.2l1.1 7.1a.702.702 0 0 0 .7.6.894.894 0 0 0 .7-.6l1-7.1a14.797 14.797 0 0 1 6.6-10.2l.9-.6a.6.6 0 0 0 .3-.6.707.707 0 0 0-.3-.6l-.9-.6Z"/>
      <path fill="#8CD9FF" d="M447.4 308.3a11.091 11.091 0 0 1-5-7.7l-.8-5.4a.501.501 0 0 0-.5-.4.501.501 0 0 0-.5.4l-.9 5.4a10.6 10.6 0 0 1-4.9 7.7l-.7.4a.497.497 0 0 0-.3.5.498.498 0 0 0 .3.5l.7.4a10.608 10.608 0 0 1 4.9 7.7l.9 5.4a.495.495 0 0 0 .5.4.495.495 0 0 0 .5-.4l.8-5.4a11.096 11.096 0 0 1 5-7.7l.7-.4a.801.801 0 0 0 .2-.5.806.806 0 0 0-.2-.5l-.7-.4Z"/>
      <path fill="#FFF2A6" d="M517.4 174.1a4.381 4.381 0 0 1-1.416-1.36 4.388 4.388 0 0 1-.684-1.84l-.3-2.3h-.5l-.3 2.3a4.704 4.704 0 0 1-2.1 3.2l-.3.2v.2c0 .1 0 .2.1.2l.3.2a4.694 4.694 0 0 1 2.1 3.2l.3 2.3.2.2.3-.2.3-2.3a4.392 4.392 0 0 1 2.1-3.2l.3-.2v-.4l-.4-.2Z" opacity=".6"/>
      <path fill="#96FFFD" d="M807.1 250.8a4.595 4.595 0 0 1-2.1-3.3l-.4-2.2a.197.197 0 0 0-.059-.141.2.2 0 0 0-.341.141l-.3 2.2a4.897 4.897 0 0 1-2.1 3.3l-.3.2c-.1 0-.1.1-.1.2a.298.298 0 0 0 .1.2h.3a4.896 4.896 0 0 1 2.1 3.3l.3 2.2c0 .053.021.104.058.142a.204.204 0 0 0 .142.058.2.2 0 0 0 .2-.2l.4-2.2a4.6 4.6 0 0 1 2.1-3.3h.3v-.4l-.3-.2Z" opacity=".7"/>
      <path fill="#765EFF" d="M729.1 94a4.702 4.702 0 0 1-2.1-3.2l-.3-2.3a.198.198 0 0 0-.059-.141.198.198 0 0 0-.141-.059l-.3.2-.3 2.3a4.698 4.698 0 0 1-2.1 3.2l-.3.2c0 .1-.1.1-.1.2v.2l.3.2a4.698 4.698 0 0 1 2.1 3.2l.3 2.3.3.2a.2.2 0 0 0 .2-.2l.3-2.3a4.703 4.703 0 0 1 2.1-3.2l.3-.2c.1 0 .1-.1.1-.2s0-.1-.1-.2l-.2-.2Z"/>
      <path fill="#FF78B9" d="M498.7 186.8a8.487 8.487 0 0 1-2.537-2.54 8.49 8.49 0 0 1-1.263-3.36l-.6-4.1c0-.2-.2-.3-.4-.3s-.4.1-.4.3l-.7 4.1a8.408 8.408 0 0 1-3.7 5.9l-.6.3a.5.5 0 0 0 0 .8l.6.3a8.405 8.405 0 0 1 3.7 5.9l.7 4.1c0 .2.2.3.4.3s.4-.1.4-.3l.6-4.1a8.49 8.49 0 0 1 1.263-3.36 8.487 8.487 0 0 1 2.537-2.54l.5-.3a.51.51 0 0 0 .2-.4.499.499 0 0 0-.2-.4l-.5-.3Z" opacity=".6"/>
      <path fill="#FD96FF" d="m267.2 75.8-5.2-10 5.2-10 5.2 10-5.2 10Z" opacity=".7"/>
      <path fill="#96FFFD" d="m928 363.6-12.6-24.3L928 315l12.7 24.3-12.7 24.3Z" opacity=".7"/>
      <path fill="#7C78FF" d="M172.3 212.7a1 1 0 1 0 0-2 1 1 0 0 0 0 2Z"/>
      <path fill="#B7CCFF" d="M416.3 209.2a1.4 1.4 0 1 0 0-2.8 1.4 1.4 0 0 0 0 2.8Z"/>
      <path fill="#7C78FF" d="M783.8 144.3a1.1 1.1 0 1 0 0-2.2 1.1 1.1 0 0 0 0 2.2Z"/>
    </g>
  </g>
  <defs>
    <linearGradient id="b" x1="564" x2="564" y1="88.621" y2="307.525" gradientUnits="userSpaceOnUse">
      <stop/>
      <stop offset=".481" stop-opacity=".502"/>
      <stop offset="1" stop-opacity="0"/>
    </linearGradient>
    <linearGradient id="d" x1="515.498" x2="525.498" y1="19" y2="891.499" gradientUnits="userSpaceOnUse">
      <stop stop-color="#4C33FF"/>
      <stop offset="1" stop-color="#FF75FA"/>
    </linearGradient>
    <linearGradient id="e" x1="723.57" x2="729.36" y1="260.8" y2="260.8" gradientUnits="userSpaceOnUse">
      <stop stop-color="#C7D4FF"/>
      <stop offset="1" stop-color="#A8BDFF"/>
    </linearGradient>
    <linearGradient id="f" x1="975.47" x2="981.27" y1="312.33" y2="312.33" gradientUnits="userSpaceOnUse">
      <stop stop-color="#C7D4FF"/>
      <stop offset="1" stop-color="#A8BDFF"/>
    </linearGradient>
    <clipPath id="a">
      <path fill="#fff" d="M0 0h1127v327H0z"/>
    </clipPath>
  </defs>
</svg>
