<svg width="219" height="32" viewBox="0 0 219 32" fill="none" xmlns="http://www.w3.org/2000/svg">
<path d="M27.2786 0C26.866 0.732439 26.4956 1.49013 26.1588 2.26467C22.9597 1.78479 19.7016 1.78479 16.494 2.26467C16.1657 1.49013 15.7868 0.732439 15.3743 0C12.3688 0.513549 9.43903 1.41436 6.66082 2.68561C1.1549 10.8435 -0.335235 18.7908 0.405622 26.6288C3.63004 29.0113 7.24172 30.8298 11.0891 31.9916C11.9563 30.8298 12.7224 29.5922 13.3791 28.3041C12.1331 27.8411 10.9292 27.2602 9.77579 26.5867C10.0789 26.3678 10.3735 26.1405 10.6598 25.9216C17.4201 29.1039 25.2496 29.1039 32.0184 25.9216C32.3046 26.1573 32.5993 26.3846 32.9023 26.5867C31.749 27.2686 30.5451 27.8411 29.2907 28.3126C29.9473 29.6006 30.7134 30.8382 31.5806 32C35.428 30.8382 39.0397 29.0282 42.2641 26.6456C43.1396 17.5533 40.7655 9.67324 35.9921 2.69403C33.2223 1.42278 30.2925 0.521968 27.287 0.0168377L27.2786 0ZM14.322 21.8048C12.2425 21.8048 10.5166 19.919 10.5166 17.587C10.5166 15.2549 12.1752 13.3607 14.3135 13.3607C16.4519 13.3607 18.1525 15.2634 18.1189 17.587C18.0852 19.9106 16.4435 21.8048 14.322 21.8048ZM28.3477 21.8048C26.2599 21.8048 24.5508 19.919 24.5508 17.587C24.5508 15.2549 26.2094 13.3607 28.3477 13.3607C30.4861 13.3607 32.1783 15.2634 32.1446 17.587C32.111 19.9106 30.4693 21.8048 28.3477 21.8048ZM83.0894 5.84267C80.9931 4.89976 78.4338 4.42831 75.403 4.42831H62.8421V26.9824H74.5022C77.7855 26.9824 80.5385 26.4772 82.7611 25.467C84.79 24.6251 86.5159 23.1939 87.7282 21.3586C88.8142 19.6243 89.3783 17.6122 89.353 15.5664C89.3867 13.5291 88.8479 11.5254 87.7871 9.78269C86.659 8.02315 85.0173 6.64246 83.0894 5.83425V5.84267ZM79.082 19.7169C77.9876 20.7356 76.4217 21.2491 74.3759 21.2491H70.8989V10.17H74.8305C76.8005 10.17 78.2822 10.6667 79.2672 11.6348C80.2691 12.6788 80.7995 14.0931 80.7321 15.5496C80.8079 17.1155 80.2102 18.6309 79.0904 19.7253L79.082 19.7169ZM121.824 17.2249C122.852 18.1426 123.365 19.4896 123.374 21.266C123.407 23.1602 122.431 24.9366 120.806 25.9216C119.114 27.0581 116.689 27.6306 113.54 27.6222C111.73 27.6222 109.929 27.3949 108.178 26.9487C106.519 26.5362 104.936 25.8711 103.471 24.9871V19.6411C104.751 20.5672 106.182 21.2491 107.706 21.6532C109.373 22.1584 111.107 22.4278 112.85 22.4362C113.448 22.4699 114.054 22.3604 114.61 22.1331C115.005 21.9311 115.199 21.6701 115.199 21.4091C115.207 21.106 115.089 20.8198 114.879 20.6009C114.508 20.3231 114.079 20.1294 113.625 20.0537L109.76 19.1865C107.546 18.673 105.972 17.9574 105.046 17.0481C104.103 16.0968 103.598 14.7919 103.665 13.4533C103.648 12.2578 104.086 11.096 104.886 10.2036C105.837 9.19337 107.041 8.46093 108.363 8.06525C110.072 7.52644 111.857 7.27388 113.65 7.30755C115.325 7.29071 116.992 7.48435 118.608 7.88845C119.922 8.19995 121.176 8.69666 122.346 9.37017V14.4299C121.252 13.7985 120.073 13.3102 118.853 12.9987C117.522 12.6451 116.15 12.4599 114.778 12.4599C112.757 12.4599 111.747 12.8051 111.747 13.487C111.747 13.7985 111.924 14.0847 112.21 14.211C112.766 14.4467 113.338 14.6151 113.928 14.7077L117.152 15.2886C119.24 15.659 120.806 16.2989 121.833 17.2249H121.824ZM143.208 20.9461C144.151 20.6767 145.052 20.2894 145.894 19.8011V25.5091C143.402 26.9571 140.556 27.698 137.677 27.639C135.37 27.698 133.072 27.2349 130.976 26.2752C129.25 25.4838 127.802 24.2042 126.8 22.5962C125.866 21.0134 125.386 19.2118 125.419 17.3765C125.394 15.5412 125.899 13.7395 126.867 12.1905C127.903 10.6077 129.385 9.36175 131.119 8.60405C133.232 7.6864 135.513 7.2402 137.82 7.29913C141.045 7.29913 143.713 7.97264 145.843 9.32807V15.2297C145.035 14.6825 144.151 14.2615 143.217 13.9753C142.173 13.6469 141.087 13.487 139.992 13.4954C137.997 13.4954 136.431 13.8574 135.303 14.5898C133.72 15.4738 133.148 17.4775 134.032 19.0687C134.318 19.5822 134.747 20.0116 135.253 20.3147C136.347 21.0555 137.938 21.4259 140.018 21.4259C141.095 21.4259 142.164 21.2744 143.191 20.9629L143.208 20.9461ZM167.059 8.59563C162.824 6.87819 158.084 6.87819 153.85 8.59563C152.124 9.35333 150.659 10.5909 149.615 12.1568C148.63 13.7059 148.116 15.4991 148.15 17.3344C148.125 19.1865 148.638 21.0134 149.615 22.5877C150.651 24.1957 152.132 25.4754 153.875 26.2668C158.084 28.06 162.841 28.06 167.05 26.2584C168.785 25.467 170.258 24.1873 171.285 22.5793C172.253 20.9966 172.758 19.1781 172.733 17.326C172.767 15.4907 172.262 13.689 171.285 12.14C170.25 10.5825 168.785 9.34491 167.067 8.59563H167.059ZM163.658 20.5504C162.791 21.367 161.629 21.7964 160.433 21.7206C159.246 21.7795 158.084 21.3586 157.209 20.5504C156.409 19.7169 155.98 18.5972 156.039 17.4354C155.98 16.2905 156.409 15.1792 157.209 14.3625C158.084 13.5627 159.246 13.1586 160.433 13.2176C161.62 13.1502 162.782 13.5627 163.658 14.3625C164.466 15.1792 164.895 16.2905 164.836 17.4354C164.887 18.5888 164.466 19.7169 163.658 20.5504ZM189.158 7.70324C190.185 7.67798 191.204 7.93896 192.088 8.47777V15.4486C191.128 14.8761 190.017 14.5983 188.897 14.6404C187.18 14.6404 185.858 15.1623 184.932 16.2063C184.014 17.2502 183.551 18.8666 183.551 21.0555V26.9824H175.655V8.1326H183.383V14.1184C183.812 11.9295 184.503 10.3131 185.462 9.26914C186.405 8.23362 187.744 7.66114 189.141 7.70324H189.158ZM210.424 3.78006V12.1821C209.136 8.91555 206.611 7.28229 202.856 7.28229C201.138 7.25704 199.446 7.71166 197.973 8.60405C196.542 9.49645 195.388 10.7677 194.656 12.2831C193.856 13.9416 193.46 15.7601 193.519 17.5954C193.486 19.3717 193.856 21.1229 194.597 22.7393C195.27 24.1957 196.348 25.4417 197.695 26.3173C199.093 27.2013 200.717 27.6559 202.367 27.6222C204.127 27.6727 205.861 27.2434 207.385 26.3678C208.766 25.5175 209.835 24.2463 210.433 22.7393V26.974H218.33V3.78006H210.433H210.424ZM209.263 20.4409C208.387 21.2491 207.225 21.6617 206.038 21.5943C204.876 21.6532 203.74 21.2323 202.881 20.4409C202.073 19.658 201.635 18.5635 201.677 17.4354C201.635 16.3157 202.064 15.2381 202.873 14.4551C204.733 12.9398 207.402 12.9398 209.263 14.4551C210.071 15.2128 210.509 16.282 210.475 17.3933C210.517 18.5299 210.079 19.6411 209.263 20.4409ZM99.9439 6.60879C99.9439 8.56196 98.1844 10.1447 96.0123 10.1447C93.8402 10.1447 92.0807 8.56196 92.0807 6.60879C92.0807 4.65562 93.8402 3.07288 96.0123 3.07288C98.1844 3.07288 99.9439 4.65562 99.9439 6.60879ZM99.9439 12.5777V27.0834H92.0723V12.5777C94.5895 13.6385 97.4267 13.6385 99.9439 12.5777Z" fill="black"/>
</svg>
