<svg xmlns="http://www.w3.org/2000/svg" fill="none" viewBox="0 0 1128 670">
  <g clip-path="url(#a)">
    <mask id="c" width="1128" height="600" x="0" y="0" maskUnits="userSpaceOnUse" style="mask-type:alpha">
      <path fill="url(#b)" d="M559.5 600H0V0h1128v600H559.5Z"/>
    </mask>
    <g mask="url(#c)">
      <path fill="url(#d)" d="M566.905 554.697C361.963 685.282 216.886 675.85 0 675.85V0h1128v451.568c-205.267 0-376-14.809-561.095 103.129Z"/>
      <path fill="url(#e)" d="M875.9 0h15.2L0 526.1V600 453.1L875.9 0Z"/>
      <path fill="url(#f)" d="M1010.6 0h16.4l-1.8 96.9-534.9 485L1010.6 0Z"/>
      <path fill="url(#g)" d="M484.4 0 0 372.7v-21.4C308.4 60.7 484.4 0 484.4 0Z" opacity=".43"/>
      <path fill="#fff" d="m849.6 176-3.2-6.2 3.2-6.2 3.2 6.2-3.2 6.2Z" opacity=".7" style="mix-blend-mode:screen"/>
      <path fill="#66BCFF" d="m1058.4 347-2.6-5.1 2.6-5 2.6 5-2.6 5.1Z"/>
      <path fill="#D0BAFF" d="M1128 33.7A348.077 348.077 0 0 0 1107.8 0h-320c10.4 21.7 26.5 42.7 48.8 60.7-12.8 71.2 41.9 125.6 111.9 125.6 57.2 42 117.7 60 172.6 24.6a55.852 55.852 0 0 0 6.9-5.1V33.7Z"/>
      <path fill="#C1A3FF" d="M1128 26.5c-4.7-8.7-9.9-17.6-15.7-26.5H790.6A179.902 179.902 0 0 0 834 50.4c-12.8 71.3 41.9 125.7 111.9 125.7 57.2 41.9 124.3 66.7 180.7 30.9l1.4-.9V26.5Z"/>
      <path fill="#B095FF" d="M1128 26.5c-4.7-8.7-9.9-17.6-15.7-26.5H875.9c9.6 89 70.5 105.5 94.1 110.6 25.9 5.6 27.9 6.4 33 26.7 15.1 59 76.8 96.4 125 68V26.5Z"/>
      <path fill="#CAB0FF" d="M116.4 410.4c-28.5 4.4-34 6.2-51-6.1-9-6.5-37.1-23.9-65.4-25.3v281h247.6c-3.3-23.9-13.4-47.9-28.8-71 64.2-25.1 69.8-85.3 32.3-135s-98.7-49-134.7-43.6Z"/>
      <path fill="#C09EFF" d="M110.3 412.7c-27.5 3-32.8 4.6-49.1-8.1-8.5-6.5-34.5-24-61.2-26.9V660h237.8c-3.9-22.6-13.6-45.5-27.9-67.8 62.9-21.7 67.9-80.9 31-131.3C204 410.5 145 409 110.3 412.7Z"/>
      <path fill="#AD93FF" d="M149.5 593.6c9.2-5.4 46.2-42.6 10.4-88.3-35.8-45.7-67.9-52.3-86.2-57.4-14.8-4.1-36.8-59.3-73.7-69V660h178.1a310.899 310.899 0 0 0-19.7-33.7c-12.1-17.8-18.2-27.3-8.9-32.7Z"/>
      <path fill="#D0BAFF" d="M6.4-20C-19.3 11.3-32.1 45.3-31 72c1.8 39.7 41.7 41.6 75.5 26.7 36.3 16.6 81.6-6.4 106-62 41.7-3.8 60.2-32.4 68.9-56.7H6.4Z"/>
      <path fill="#C1A3FF" d="M1.4-20c-23.4 30.2-35 62.4-33.9 88 1.7 40 41.9 41.9 75.8 26.8 36.6 16.8 82.2-6.4 106.7-62.3 39.4-3.6 58.2-29.2 67.6-52.5H1.4Z"/>
      <path fill="#B095FF" d="M1.4-20c-23.4 30.2-35 62.4-33.9 88 .5 13.6 5.6 22.8 13.3 28.4 20.9 13.5 58.7-1.3 91.3-52.8 34.7 12.3 68.7-20.2 83-63.6H1.4Z"/>
      <path fill="#C9FAFF" d="M686.7 484.4c27.3-14.6 34.4-26.7 34.8-32.9.4-6.2-9.7-10.7-28.5 1.8a4.602 4.602 0 0 1-2.2.6c-23.6-1.2-39.2 15-45.6 24.4-10 14.8.7 28 41.5 6.1Z" opacity=".22"/>
      <path fill="#C1B0FF" d="M977.74 279.57c20.955 1.296 30.74-4.354 31.34-11.514.6-7.159-6.46-13.59-9.814-15.001-4.411-10.04-15.363-15.61-24.38-9.827a23.7 23.7 0 0 0-9.43 13.066c-14.927 4.345-26.612 20.907 12.284 23.276Z"/>
      <path fill="#B19CFF" d="M977.739 279.57c19.963 1.177 29.821-3.94 31.171-10.607 1.35-6.667-4.84-8.984-12.441-8.751-3.851-12.672-16.154-9.38-28.107-.284-6.966 1.134-18.092 3.863-16.888 9.75l.35.606c1.384 4.397 8.645 8.172 25.915 9.286Z"/>
      <path fill="#FD96FF" d="m362.3 413 23.6 29.1c3.8 4.9 8.1 9.4 12.3 14.1l12.5 13.8c4.1 4.5 3.2 12.2-1.9 17.1-5.1 4.9-10.9 5.1-15.1 2l-1.3-.9a136.084 136.084 0 0 1-14.9-12.4c-2.3-2.1-4.5-4.4-6.8-6.7s-4.2-4.8-6.4-7.3c-4-5-7.9-10.1-11.5-15.5a148.168 148.168 0 0 1-10.1-16.7l-.7-1.3c-2.8-5.5-.3-13 5.6-16.8 5.9-3.8 11.4-2.6 14.7 1.5Z" opacity=".43"/>
      <path fill="#B7CCFF" d="M633.2 141.3a1.5 1.5 0 1 0-.001-3.001 1.5 1.5 0 0 0 .001 3.001Zm452.4 292.1a1.5 1.5 0 1 0 .001-2.999 1.5 1.5 0 0 0-.001 2.999Zm-631.9 24.1a1.5 1.5 0 1 0 0-3 1.5 1.5 0 0 0 0 3Z"/>
      <path fill="url(#h)" d="M723.5 283.7a2.9 2.9 0 1 0 .001-5.799 2.9 2.9 0 0 0-.001 5.799Z"/>
      <path fill="url(#i)" d="M1035.4 275.2a2.9 2.9 0 1 0-.002-5.802 2.9 2.9 0 0 0 .002 5.802Z"/>
      <path fill="#FFE75C" d="M634.9 217.2a1.3 1.3 0 1 0 0-2.6 1.3 1.3 0 0 0 0 2.6Zm-60-190a1.3 1.3 0 1 0 0-2.6 1.3 1.3 0 0 0 0 2.6ZM450.7 384.3a.8.8 0 1 0 0-1.6.8.8 0 0 0 0 1.6Z"/>
      <path fill="#B7CCFF" d="M365.1 323.9a1 1 0 1 0 0-2 1 1 0 0 0 0 2ZM263.9 214.5a1 1 0 1 0 0-2 1 1 0 0 0 0 2Zm70.8 90.6a.8.8 0 1 0 0-1.6.8.8 0 0 0 0 1.6Zm146.1-148.7a.6.6 0 1 0-.001-1.201.6.6 0 0 0 .001 1.201ZM144.6 329.8a.6.6 0 1 0-.001-1.201.6.6 0 0 0 .001 1.201ZM44 101.8a.6.6 0 1 0 0-1.2.6.6 0 0 0 0 1.2Zm394.1 8.1a.6.6 0 1 0-.001-1.201.6.6 0 0 0 .001 1.201ZM80.5 243.6a.6.6 0 1 0 0-1.2.6.6 0 0 0 0 1.2Zm600.9 152.6a.6.6 0 1 0-.001-1.201.6.6 0 0 0 .001 1.201ZM347.8 85.6a.6.6 0 1 0 0-1.2.6.6 0 0 0 0 1.2Zm100-30a.6.6 0 1 0 0-1.2.6.6 0 0 0 0 1.2Zm90.3 45.6a1.2 1.2 0 1 0 0-2.4 1.2 1.2 0 0 0 0 2.4ZM382 156.4a1.2 1.2 0 1 0 0-2.4 1.2 1.2 0 0 0 0 2.4ZM67.9 128.5a1.2 1.2 0 1 0 0-2.4 1.2 1.2 0 0 0 0 2.4Zm228.2 244.3a1.2 1.2 0 1 0 0-2.4 1.2 1.2 0 0 0 0 2.4Zm489.4 56.5a1.2 1.2 0 1 0 0-2.4 1.2 1.2 0 0 0 0 2.4Zm-26.8-32.5a1.2 1.2 0 1 0 0-2.4 1.2 1.2 0 0 0 0 2.4Zm149.7-144.3a1 1 0 1 0 0-2 1 1 0 0 0 0 2Zm74.5-.7a1 1 0 1 0 0-2 1 1 0 0 0 0 2ZM837.2 396.6a1 1 0 1 0 0-2 1 1 0 0 0 0 2Zm-414-287.3a1 1 0 1 0 0-2 1 1 0 0 0 0 2Zm525.5 140a1 1 0 1 0 0-2 1 1 0 0 0 0 2Zm14.3-13.1a1 1 0 1 0 0-2 1 1 0 0 0 0 2ZM706.1 68.7l-1.5-3 1.5-3 1.6 3-1.6 3Z"/>
      <path fill="#91FFAD" d="m540.4 470.5-2.7-5.1 2.7-5 2.6 5-2.6 5.1Zm272.7-333.1-2.6-5.1 2.6-5 2.6 5-2.6 5.1Z"/>
      <path fill="#B7CCFF" d="m706.1 68.7-1.5-3 1.5-3 1.6 3-1.6 3ZM315.2 444l-1.5-3 1.5-3 1.6 3-1.6 3Zm155.9-165.2a1 1 0 1 0 0-2 1 1 0 0 0 0 2ZM194.9 231a1 1 0 1 0 0-2 1 1 0 0 0 0 2Zm29.2 35.8a1 1 0 1 0 0-2 1 1 0 0 0 0 2Zm-27.2-72.9a1 1 0 1 0 0-2 1 1 0 0 0 0 2Zm750.3 105a1 1 0 1 0 0-2 1 1 0 0 0 0 2Zm-69.5 92.9a1 1 0 1 0 0-2 1 1 0 0 0 0 2Zm219.8-129.7c.55 0 1-.448 1-1s-.45-1-1-1-1 .448-1 1 .45 1 1 1Zm-76 43.2c.55 0 1-.448 1-1s-.45-1-1-1-1 .448-1 1 .45 1 1 1ZM662.4 92.6a1 1 0 1 0 0-2 1 1 0 0 0 0 2Z"/>
      <path fill="#fff" d="m453.7 296.5-3.2-6.3 3.2-6.2 3.3 6.2-3.3 6.3Z" opacity=".7" style="mix-blend-mode:screen"/>
      <path fill="#fff" d="m734.9 202.4-.9-1.8.9-1.8 1 1.8-1 1.8Z" opacity=".29" style="mix-blend-mode:screen"/>
      <path fill="#66BCFF" d="M154.2 182.2a14.406 14.406 0 0 1-6.6-10.1l-1-7.1a.898.898 0 0 0-.7-.6.7.7 0 0 0-.7.6l-1.1 7.1a14.302 14.302 0 0 1-6.5 10.1l-1 .6a.9.9 0 0 0-.3.6.9.9 0 0 0 .3.6l1 .6a14.302 14.302 0 0 1 6.5 10.1l1.1 7.1a.7.7 0 0 0 .7.6.905.905 0 0 0 .7-.6l1-7.1a14.406 14.406 0 0 1 6.6-10.1l.9-.6a.9.9 0 0 0 .3-.6.9.9 0 0 0-.3-.6l-.9-.6Z"/>
      <path fill="#fff" d="M678 264.5a5.698 5.698 0 0 1-2.7-4.2l-.5-2.9c0-.1-.1-.2-.3-.2l-.3.2-.4 2.9a5.696 5.696 0 0 1-2.7 4.2l-.4.2c0 .1-.1.2-.1.3a.298.298 0 0 0 .1.2l.4.3a5.6 5.6 0 0 1 2.7 4.2l.4 2.9.3.2c.2 0 .3-.1.3-.2l.5-2.9a5.609 5.609 0 0 1 2.7-4.2l.3-.3a.2.2 0 0 0 .2-.2c0-.1-.1-.2-.2-.3l-.3-.2Z"/>
      <path fill="#FFE75C" d="M304 45.2a14.898 14.898 0 0 1-6.6-10.1l-1-7.1a.702.702 0 0 0-.7-.6c-.4 0-.7.2-.7.6l-1.1 7.1a14.696 14.696 0 0 1-6.5 10.1l-1 .6a.709.709 0 0 0-.227.262.707.707 0 0 0-.073.338.605.605 0 0 0 .3.6l1 .6a14.705 14.705 0 0 1 6.5 10.2l1.1 7.1a.702.702 0 0 0 .7.6.904.904 0 0 0 .7-.6l1-7.1a14.798 14.798 0 0 1 6.6-10.2l.9-.6a.605.605 0 0 0 .3-.6.707.707 0 0 0-.073-.338.709.709 0 0 0-.227-.262l-.9-.6Z"/>
      <path fill="#8CD9FF" d="M674.4 58.3a11.098 11.098 0 0 1-5-7.7l-.8-5.4a.498.498 0 0 0-.5-.4.498.498 0 0 0-.5.4l-.9 5.4a10.602 10.602 0 0 1-4.9 7.7l-.7.4a.495.495 0 0 0-.3.5.496.496 0 0 0 .3.5l.7.4a10.6 10.6 0 0 1 4.9 7.7l.9 5.4a.498.498 0 0 0 .5.4.498.498 0 0 0 .5-.4l.8-5.4a11.092 11.092 0 0 1 5-7.7l.7-.4a.803.803 0 0 0 .2-.5.803.803 0 0 0-.2-.5l-.7-.4Z"/>
      <path fill="#FFF2A6" d="M514.4 34.1a4.408 4.408 0 0 1-2.1-3.2l-.3-2.3h-.5l-.3 2.3a4.702 4.702 0 0 1-2.1 3.2l-.3.2v.2c0 .1 0 .2.1.2l.3.2a4.702 4.702 0 0 1 2.1 3.2l.3 2.3.2.2.3-.2.3-2.3a4.403 4.403 0 0 1 2.1-3.2l.3-.2v-.4l-.4-.2Z" opacity=".6"/>
      <path fill="#96FFFD" d="M804.1 270.8a4.595 4.595 0 0 1-2.1-3.3l-.4-2.2a.2.2 0 1 0-.4 0l-.3 2.2a4.912 4.912 0 0 1-.706 1.869 4.912 4.912 0 0 1-1.394 1.431l-.3.2c-.1 0-.1.1-.1.2a.298.298 0 0 0 .1.2h.3a4.912 4.912 0 0 1 1.394 1.431c.361.568.601 1.204.706 1.869l.3 2.2c0 .053.021.104.059.141a.2.2 0 0 0 .341-.141l.4-2.2a4.594 4.594 0 0 1 2.1-3.3h.3v-.4l-.3-.2Z" opacity=".7"/>
      <path fill="#765EFF" d="M726.1 114a4.694 4.694 0 0 1-2.1-3.2l-.3-2.3a.197.197 0 0 0-.059-.141.197.197 0 0 0-.141-.059l-.3.2-.3 2.3a4.694 4.694 0 0 1-2.1 3.2l-.3.2c0 .1-.1.1-.1.2v.2l.3.2a4.694 4.694 0 0 1 2.1 3.2l.3 2.3.3.2a.197.197 0 0 0 .141-.059.197.197 0 0 0 .059-.141l.3-2.3a4.707 4.707 0 0 1 2.1-3.2l.3-.2c.1 0 .1-.1.1-.2s0-.1-.1-.2l-.2-.2Z"/>
      <path fill="#8C4FFD" d="M647.5 365.3a7.502 7.502 0 0 1-3.2-4.9l-.5-3.4a.3.3 0 0 0-.6 0l-.6 3.4a6.999 6.999 0 0 1-3.1 4.9l-.5.3a.401.401 0 0 0-.1.3c0 .1 0 .3.1.3l.5.3a7.004 7.004 0 0 1 3.1 4.9l.6 3.4a.3.3 0 1 0 .6 0l.5-3.4a7.498 7.498 0 0 1 3.2-4.9l.5-.3c.1 0 .1-.2.1-.3a.412.412 0 0 0-.1-.3l-.5-.3Z"/>
      <path fill="#fff" d="m216.6 440.4-3.3-6.1 3.3-6.2 3.2 6.2-3.2 6.1Z" opacity=".7" style="mix-blend-mode:screen"/>
      <path fill="#FD96FF" d="m1007.2 85.8-18.2-35 18.2-35 18.2 35-18.2 35Z" opacity=".7"/>
      <path fill="#96FFFD" d="m565 263.6-12.6-24.3L565 215l12.7 24.3-12.7 24.3Z" opacity=".7"/>
      <path fill="#7C78FF" d="M169.3 232.7a1 1 0 1 0 0-2 1 1 0 0 0 0 2Z"/>
      <path fill="#B7CCFF" d="M413.3 179.2a1.4 1.4 0 1 0 0-2.8 1.4 1.4 0 0 0 0 2.8Z"/>
      <path fill="#8C4FFD" d="M55.2 192.3c3.7-11.1 9.1-19.4 11.8-18.5 2.7.9-1.1 9.7-4.9 20.9-3.8 11.2-6.2 20.4-8.8 19.5-2.6-.9-1.9-10.8 1.9-21.9Z"/>
      <path fill="url(#j)" d="M855.6 372.7a1.1 1.1 0 1 0 0-2.2 1.1 1.1 0 0 0 0 2.2Z"/>
      <path fill="#7C78FF" d="M780.8 164.3a1.1 1.1 0 1 0-.001-2.201 1.1 1.1 0 0 0 .001 2.201Zm-50-150a1.1 1.1 0 1 0 0-2.2 1.1 1.1 0 0 0 0 2.2Z"/>
    </g>
  </g>
  <defs>
    <linearGradient id="b" x1="564" x2="564" y1="236.5" y2="600" gradientUnits="userSpaceOnUse">
      <stop/>
      <stop offset=".374" stop-opacity=".502"/>
      <stop offset=".87" stop-opacity="0"/>
    </linearGradient>
    <linearGradient id="d" x1="564" x2="564" y1="8.856" y2="660.441" gradientUnits="userSpaceOnUse">
      <stop stop-color="#4C33FF"/>
      <stop offset="1" stop-color="#FF75FA"/>
    </linearGradient>
    <linearGradient id="e" x1="812.31" x2="-48.96" y1="-37.79" y2="583" gradientUnits="userSpaceOnUse">
      <stop stop-color="#D044E0" stop-opacity=".1"/>
      <stop offset=".42" stop-color="#CF44E0" stop-opacity=".11"/>
      <stop offset=".57" stop-color="#CA45E2" stop-opacity=".13"/>
      <stop offset=".68" stop-color="#C147E5" stop-opacity=".18"/>
      <stop offset=".77" stop-color="#B549E9" stop-opacity=".24"/>
      <stop offset=".85" stop-color="#A54BEE" stop-opacity=".33"/>
      <stop offset=".92" stop-color="#924FF5" stop-opacity=".43"/>
      <stop offset=".98" stop-color="#7B53FC" stop-opacity=".55"/>
      <stop offset="1" stop-color="#7354FF" stop-opacity=".6"/>
    </linearGradient>
    <linearGradient id="f" x1="540.92" x2="1117.6" y1="524.42" y2="-51.03" gradientUnits="userSpaceOnUse">
      <stop stop-color="#BB7DE8" stop-opacity=".3"/>
      <stop offset=".4" stop-color="#B075EC" stop-opacity=".3"/>
      <stop offset=".73" stop-color="#8F5CF7" stop-opacity=".3"/>
      <stop offset=".88" stop-color="#774AFF" stop-opacity=".3"/>
    </linearGradient>
    <linearGradient id="g" x1="69.16" x2="296.92" y1="289.79" y2="144.25" gradientUnits="userSpaceOnUse">
      <stop stop-color="#DF89E8" stop-opacity=".3"/>
      <stop offset=".46" stop-color="#DD88E9" stop-opacity=".31"/>
      <stop offset=".63" stop-color="#D684EA" stop-opacity=".33"/>
      <stop offset=".75" stop-color="#CA7EEE" stop-opacity=".37"/>
      <stop offset=".85" stop-color="#B975F2" stop-opacity=".44"/>
      <stop offset=".93" stop-color="#A369F8" stop-opacity=".51"/>
      <stop offset="1" stop-color="#8B5CFF" stop-opacity=".6"/>
    </linearGradient>
    <linearGradient id="h" x1="720.57" x2="726.36" y1="280.8" y2="280.8" gradientUnits="userSpaceOnUse">
      <stop stop-color="#C7D4FF"/>
      <stop offset="1" stop-color="#A8BDFF"/>
    </linearGradient>
    <linearGradient id="i" x1="1032.47" x2="1038.27" y1="272.33" y2="272.33" gradientUnits="userSpaceOnUse">
      <stop stop-color="#C7D4FF"/>
      <stop offset="1" stop-color="#A8BDFF"/>
    </linearGradient>
    <linearGradient id="j" x1="857.16" x2="853.74" y1="373.15" y2="369.73" gradientUnits="userSpaceOnUse">
      <stop stop-color="#593FD1"/>
      <stop offset=".68" stop-color="#8354FF"/>
    </linearGradient>
    <clipPath id="a">
      <path fill="#fff" d="M0 0h1128v600H0z"/>
    </clipPath>
  </defs>
</svg>
